<?xml version="1.0" encoding="UTF-8"?>
<svg xmlns="http://www.w3.org/2000/svg" xmlns:xlink="http://www.w3.org/1999/xlink" width="71px" height="64px" viewBox="0 0 71 64" version="1.1">
<defs>
<linearGradient id="linear0" gradientUnits="userSpaceOnUse" x1="243.419998" y1="2.19263" x2="243.419998" y2="223.026001" gradientTransform="matrix(0.216463,0,0,0.217687,0,0)">
<stop offset="0" style="stop-color:rgb(74.117647%,35.294118%,69.803922%);stop-opacity:1;"/>
<stop offset="1" style="stop-color:rgb(63.137255%,11.764706%,57.647059%);stop-opacity:1;"/>
</linearGradient>
<linearGradient id="linear1" gradientUnits="userSpaceOnUse" x1="80.760902" y1="0.0661011" x2="80.760902" y2="225.300995" gradientTransform="matrix(0.216463,0,0,0.217687,0,0)">
<stop offset="0" style="stop-color:rgb(11.764706%,68.627451%,67.058824%);stop-opacity:1;"/>
<stop offset="1" style="stop-color:rgb(26.27451%,50.588235%,49.803922%);stop-opacity:1;"/>
</linearGradient>
</defs>
<g id="surface1">
<path style=" stroke:none;fill-rule:nonzero;fill:rgb(28.235295%,30.19608%,31.764707%);fill-opacity:1;" d="M 6.351562 28 C 6.351562 28.277344 6.292969 28.523438 6.179688 28.734375 C 6.0625 28.945312 5.898438 29.105469 5.6875 29.222656 C 5.476562 29.339844 5.230469 29.394531 4.949219 29.394531 L 3.871094 29.394531 C 3.585938 29.394531 3.339844 29.339844 3.132812 29.222656 C 2.921875 29.105469 2.757812 28.945312 2.640625 28.734375 C 2.527344 28.523438 2.46875 28.277344 2.46875 28 C 2.46875 27.71875 2.527344 27.472656 2.640625 27.265625 C 2.757812 27.054688 2.921875 26.890625 3.132812 26.773438 C 3.339844 26.660156 3.585938 26.601562 3.871094 26.601562 L 4.949219 26.601562 C 5.230469 26.601562 5.476562 26.660156 5.6875 26.773438 C 5.898438 26.890625 6.0625 27.054688 6.179688 27.265625 C 6.292969 27.472656 6.351562 27.71875 6.351562 28 Z M 5.632812 28 C 5.632812 27.800781 5.574219 27.644531 5.449219 27.527344 C 5.328125 27.40625 5.167969 27.347656 4.964844 27.347656 L 3.851562 27.347656 C 3.648438 27.347656 3.488281 27.40625 3.367188 27.527344 C 3.246094 27.644531 3.183594 27.800781 3.183594 28 C 3.183594 28.195312 3.246094 28.351562 3.367188 28.472656 C 3.488281 28.589844 3.648438 28.648438 3.851562 28.648438 L 4.964844 28.648438 C 5.167969 28.648438 5.328125 28.589844 5.449219 28.472656 C 5.574219 28.351562 5.632812 28.195312 5.632812 28 Z M 6.308594 25.890625 L 2.507812 25.890625 L 2.507812 25.007812 L 5.421875 23.585938 L 5.488281 23.648438 L 2.507812 23.648438 L 2.507812 22.957031 L 6.308594 22.957031 L 6.308594 23.84375 L 3.4375 25.265625 L 3.371094 25.199219 L 6.308594 25.199219 Z M 6.3125 22.117188 L 2.507812 22.117188 L 2.507812 21.394531 L 6.3125 21.394531 Z M 6.3125 21.855469 L 5.621094 21.855469 L 5.621094 19.550781 L 6.3125 19.550781 Z M 4.765625 21.855469 L 4.078125 21.855469 L 4.078125 19.84375 L 4.765625 19.84375 Z M 3.195312 21.855469 L 2.507812 21.855469 L 2.507812 19.550781 L 3.195312 19.550781 Z M 3.195312 21.855469 "/>
<path style=" stroke:none;fill-rule:nonzero;fill:rgb(28.235295%,30.19608%,31.764707%);fill-opacity:1;" d="M 36.496094 5.257812 L 36.496094 4.59375 L 37.761719 4.59375 C 37.867188 4.59375 37.953125 4.554688 38.015625 4.476562 C 38.082031 4.398438 38.113281 4.292969 38.117188 4.164062 C 38.117188 4.035156 38.082031 3.933594 38.019531 3.855469 C 37.953125 3.773438 37.871094 3.734375 37.761719 3.734375 L 36.496094 3.734375 L 36.496094 3.070312 L 37.816406 3.070312 C 38.015625 3.070312 38.191406 3.117188 38.34375 3.207031 C 38.496094 3.296875 38.613281 3.425781 38.695312 3.589844 C 38.777344 3.753906 38.820312 3.945312 38.820312 4.164062 C 38.820312 4.386719 38.777344 4.578125 38.691406 4.742188 C 38.609375 4.90625 38.492188 5.035156 38.34375 5.125 C 38.191406 5.214844 38.015625 5.257812 37.816406 5.257812 Z M 36.222656 6.730469 L 36.222656 3.070312 L 36.90625 3.070312 L 36.90625 6.730469 Z M 38.144531 6.730469 L 37.261719 5.144531 L 37.992188 5.03125 L 38.972656 6.730469 Z M 39.5625 6.730469 L 39.5625 3.074219 L 40.25 3.074219 L 40.25 6.730469 Z M 39.8125 6.730469 L 39.8125 6.066406 L 42 6.066406 L 42 6.730469 Z M 39.8125 5.246094 L 39.8125 4.582031 L 41.722656 4.582031 L 41.722656 5.246094 Z M 39.8125 3.738281 L 39.8125 3.074219 L 42 3.074219 L 42 3.738281 Z M 44.21875 5.539062 L 44.910156 3.074219 L 45.8125 3.074219 L 45.8125 6.730469 L 45.191406 6.730469 L 45.191406 3.890625 L 45.214844 4.050781 L 44.519531 6.324219 L 43.917969 6.324219 L 43.222656 4.101562 L 43.246094 3.890625 L 43.246094 6.730469 L 42.625 6.730469 L 42.625 3.074219 L 43.527344 3.074219 Z M 46.613281 6.730469 L 46.613281 3.074219 L 47.300781 3.074219 L 47.300781 6.730469 Z M 46.863281 6.730469 L 46.863281 6.066406 L 49.050781 6.066406 L 49.050781 6.730469 Z M 46.863281 5.246094 L 46.863281 4.582031 L 48.773438 4.582031 L 48.773438 5.246094 Z M 46.863281 3.738281 L 46.863281 3.074219 L 49.050781 3.074219 L 49.050781 3.738281 Z M 51.269531 5.539062 L 51.960938 3.074219 L 52.863281 3.074219 L 52.863281 6.730469 L 52.242188 6.730469 L 52.242188 3.890625 L 52.265625 4.050781 L 51.570312 6.324219 L 50.96875 6.324219 L 50.273438 4.101562 L 50.296875 3.890625 L 50.296875 6.730469 L 49.675781 6.730469 L 49.675781 3.074219 L 50.578125 3.074219 Z M 53.964844 6.730469 L 53.964844 6.066406 L 55.125 6.066406 C 55.28125 6.066406 55.402344 6.027344 55.488281 5.953125 C 55.574219 5.875 55.617188 5.769531 55.617188 5.632812 L 55.617188 5.625 C 55.617188 5.484375 55.574219 5.378906 55.488281 5.300781 C 55.402344 5.226562 55.28125 5.1875 55.125 5.1875 L 53.964844 5.1875 L 53.964844 4.523438 L 55.125 4.523438 C 55.265625 4.523438 55.375 4.488281 55.453125 4.414062 C 55.53125 4.34375 55.570312 4.242188 55.570312 4.109375 C 55.570312 3.992188 55.53125 3.898438 55.453125 3.835938 C 55.375 3.769531 55.265625 3.738281 55.125 3.738281 L 53.964844 3.738281 L 53.964844 3.074219 L 55.148438 3.074219 C 55.5 3.074219 55.773438 3.160156 55.96875 3.332031 C 56.164062 3.507812 56.261719 3.75 56.261719 4.066406 C 56.261719 4.277344 56.199219 4.453125 56.074219 4.59375 C 55.949219 4.730469 55.773438 4.820312 55.546875 4.855469 C 55.789062 4.890625 55.976562 4.984375 56.109375 5.136719 C 56.242188 5.289062 56.308594 5.484375 56.308594 5.726562 L 56.308594 5.734375 C 56.308594 6.050781 56.210938 6.296875 56.015625 6.472656 C 55.820312 6.644531 55.546875 6.730469 55.191406 6.730469 Z M 53.664062 6.730469 L 53.664062 3.074219 L 54.351562 3.074219 L 54.351562 6.730469 Z M 56.96875 6.730469 L 56.96875 3.074219 L 57.65625 3.074219 L 57.65625 6.730469 Z M 57.21875 6.730469 L 57.21875 6.066406 L 59.40625 6.066406 L 59.40625 6.730469 Z M 57.21875 5.246094 L 57.21875 4.582031 L 59.128906 4.582031 L 59.128906 5.246094 Z M 57.21875 3.738281 L 57.21875 3.074219 L 59.40625 3.074219 L 59.40625 3.738281 Z M 60.304688 5.257812 L 60.304688 4.59375 L 61.566406 4.59375 C 61.675781 4.59375 61.757812 4.554688 61.824219 4.476562 C 61.886719 4.398438 61.921875 4.292969 61.921875 4.164062 C 61.921875 4.035156 61.890625 3.933594 61.824219 3.855469 C 61.761719 3.773438 61.675781 3.734375 61.566406 3.734375 L 60.304688 3.734375 L 60.304688 3.070312 L 61.621094 3.070312 C 61.824219 3.070312 62 3.117188 62.152344 3.207031 C 62.300781 3.296875 62.417969 3.425781 62.503906 3.589844 C 62.585938 3.753906 62.628906 3.945312 62.628906 4.164062 C 62.628906 4.386719 62.585938 4.578125 62.5 4.742188 C 62.417969 4.90625 62.300781 5.035156 62.152344 5.125 C 62 5.214844 61.824219 5.257812 61.621094 5.257812 Z M 60.03125 6.730469 L 60.03125 3.070312 L 60.714844 3.070312 L 60.714844 6.730469 Z M 61.949219 6.730469 L 61.066406 5.144531 L 61.800781 5.03125 L 62.78125 6.730469 Z M 61.949219 6.730469 "/>
<path style=" stroke:none;fill-rule:nonzero;fill:url(#linear0);" d="M 38.203125 20.5 L 54.828125 20.5 C 55.746094 20.5 56.558594 20.269531 57.257812 19.804688 C 57.960938 19.34375 58.496094 18.683594 58.867188 17.824219 C 59.261719 16.964844 59.46875 15.972656 59.492188 14.847656 C 59.492188 13.726562 59.296875 12.734375 58.902344 11.875 C 58.527344 11.015625 57.992188 10.355469 57.289062 9.894531 C 56.589844 9.429688 55.769531 9.199219 54.828125 9.199219 L 38.203125 9.199219 L 38.203125 0.476562 L 55.550781 0.476562 C 58.179688 0.476562 60.488281 1.070312 62.480469 2.261719 C 64.476562 3.449219 66.019531 5.136719 67.113281 7.316406 C 68.210938 9.476562 68.757812 11.984375 68.757812 14.847656 C 68.757812 17.714844 68.210938 20.234375 67.113281 22.414062 C 66.019531 24.574219 64.464844 26.25 62.449219 27.4375 C 60.457031 28.625 58.15625 29.222656 55.550781 29.222656 L 38.203125 29.222656 Z M 34.621094 0.476562 L 43.625 0.476562 L 43.625 48.550781 L 34.621094 48.550781 Z M 48.257812 27.734375 L 57.882812 26.214844 L 70.761719 48.550781 L 59.855469 48.550781 Z M 48.257812 27.734375 "/>
<path style=" stroke:none;fill-rule:nonzero;fill:url(#linear1);" d="M 17.480469 49.046875 C 13.976562 49.046875 10.910156 48.316406 8.28125 46.863281 C 5.675781 45.390625 3.648438 43.316406 2.203125 40.652344 C 0.757812 37.988281 0.0351562 34.882812 0.0351562 31.335938 L 0.0351562 17.722656 C 0.0351562 14.15625 0.757812 11.050781 2.203125 8.40625 C 3.648438 5.742188 5.675781 3.683594 8.28125 2.226562 C 10.910156 0.753906 13.976562 0.015625 17.480469 0.015625 C 20.984375 0.015625 24.042969 0.753906 26.648438 2.226562 C 29.277344 3.683594 31.3125 5.742188 32.757812 8.40625 C 34.203125 11.050781 34.925781 14.15625 34.925781 17.722656 L 34.925781 31.335938 C 34.925781 34.882812 34.203125 37.988281 32.757812 40.652344 C 31.3125 43.316406 29.277344 45.390625 26.648438 46.863281 C 24.042969 48.316406 20.984375 49.046875 17.480469 49.046875 Z M 17.480469 39.992188 C 19.933594 39.992188 21.894531 39.222656 23.363281 37.679688 C 24.851562 36.136719 25.597656 34.101562 25.597656 31.566406 L 25.597656 17.492188 C 25.597656 14.9375 24.851562 12.898438 23.363281 11.378906 C 21.894531 9.839844 19.933594 9.066406 17.480469 9.066406 C 15.027344 9.066406 13.058594 9.839844 11.566406 11.378906 C 10.101562 12.898438 9.367188 14.9375 9.367188 17.492188 L 9.367188 31.566406 C 9.367188 34.101562 10.101562 36.136719 11.566406 37.679688 C 13.058594 39.222656 15.027344 39.992188 17.480469 39.992188 Z M 17.480469 39.992188 "/>
<path style=" stroke:none;fill-rule:nonzero;fill:rgb(100%,100%,100%);fill-opacity:1;" d="M 25.253906 40.328125 L 25.253906 35.015625 L 35.925781 20.90625 C 36.410156 20.277344 36.78125 19.632812 37.039062 18.972656 C 37.308594 18.296875 37.445312 17.675781 37.445312 17.101562 L 37.445312 17.058594 C 37.445312 16.210938 37.171875 15.558594 36.632812 15.101562 C 36.089844 14.640625 35.320312 14.410156 34.320312 14.410156 C 33.367188 14.410156 32.582031 14.734375 31.96875 15.378906 C 31.371094 16.011719 31.007812 16.914062 30.878906 18.089844 L 30.878906 18.109375 L 24.867188 18.109375 L 24.867188 18.089844 C 25.070312 15.121094 26.007812 12.820312 27.691406 11.1875 C 29.386719 9.550781 31.585938 8.734375 34.277344 8.734375 C 37.203125 8.734375 39.460938 9.445312 41.058594 10.863281 C 42.667969 12.28125 43.476562 14.289062 43.476562 16.886719 L 43.476562 16.90625 C 43.476562 18.328125 43.226562 19.738281 42.726562 21.144531 C 42.242188 22.535156 41.558594 23.796875 40.671875 24.929688 L 33.015625 34.648438 L 43.644531 34.648438 L 43.644531 40.328125 Z M 25.253906 40.328125 "/>
<path style=" stroke:none;fill-rule:nonzero;fill:rgb(28.235295%,30.19608%,31.764707%);fill-opacity:1;" d="M 1.832031 52.6875 L 1.832031 56.460938 L 7.9375 56.460938 L 7.9375 58.160156 L 1.832031 58.160156 L 1.832031 61.933594 L 8.476562 61.933594 L 8.476562 63.632812 L 0.0351562 63.632812 L 0.0351562 50.992188 L 8.476562 50.992188 L 8.476562 52.6875 Z M 1.832031 52.6875 "/>
<path style=" stroke:none;fill-rule:nonzero;fill:rgb(28.235295%,30.19608%,31.764707%);fill-opacity:1;" d="M 23.023438 50.992188 L 17.527344 63.632812 L 15.210938 63.632812 L 9.734375 50.992188 L 11.78125 50.992188 L 16.414062 61.753906 L 21.046875 50.992188 Z M 23.023438 50.992188 "/>
<path style=" stroke:none;fill-rule:nonzero;fill:rgb(28.235295%,30.19608%,31.764707%);fill-opacity:1;" d="M 26.609375 52.6875 L 26.609375 56.460938 L 32.714844 56.460938 L 32.714844 58.160156 L 26.609375 58.160156 L 26.609375 61.933594 L 33.253906 61.933594 L 33.253906 63.632812 L 24.8125 63.632812 L 24.8125 50.992188 L 33.253906 50.992188 L 33.253906 52.6875 Z M 26.609375 52.6875 "/>
<path style=" stroke:none;fill-rule:nonzero;fill:rgb(28.235295%,30.19608%,31.764707%);fill-opacity:1;" d="M 47.082031 50.992188 L 47.082031 63.632812 L 45.105469 63.632812 L 37.707031 53.410156 L 37.707031 63.632812 L 35.949219 63.632812 L 35.949219 50.992188 L 38.15625 50.992188 L 45.320312 60.976562 L 45.320312 50.992188 Z M 47.082031 50.992188 "/>
<path style=" stroke:none;fill-rule:nonzero;fill:rgb(28.235295%,30.19608%,31.764707%);fill-opacity:1;" d="M 59.734375 52.722656 L 55.246094 52.722656 L 55.246094 63.632812 L 53.449219 63.632812 L 53.449219 52.722656 L 48.960938 52.722656 L 48.960938 50.992188 L 59.734375 50.992188 Z M 59.734375 52.722656 "/>
<path style=" stroke:none;fill-rule:nonzero;fill:rgb(28.235295%,30.19608%,31.764707%);fill-opacity:1;" d="M 65.84375 63.8125 C 64.382812 63.8125 63.148438 63.449219 62.144531 62.726562 C 61.148438 61.992188 60.546875 60.976562 60.332031 59.675781 L 62.125 59.675781 C 62.425781 60.507812 62.875 61.113281 63.472656 61.5 C 64.082031 61.886719 64.890625 62.078125 65.894531 62.078125 C 66.867188 62.078125 67.648438 61.902344 68.25 61.554688 C 68.847656 61.195312 69.144531 60.730469 69.144531 60.164062 C 69.144531 59.671875 68.925781 59.273438 68.480469 58.972656 C 68.039062 58.660156 67.308594 58.402344 66.292969 58.195312 L 64.925781 57.941406 C 63.503906 57.691406 62.4375 57.257812 61.730469 56.644531 C 61.023438 56.015625 60.671875 55.246094 60.671875 54.332031 C 60.671875 53.632812 60.878906 53.019531 61.300781 52.488281 C 61.71875 51.960938 62.304688 51.550781 63.058594 51.261719 C 63.8125 50.960938 64.679688 50.808594 65.664062 50.808594 C 66.945312 50.808594 68.058594 51.128906 69.003906 51.765625 C 69.949219 52.394531 70.570312 53.277344 70.871094 54.421875 L 68.984375 54.421875 C 68.746094 53.808594 68.3125 53.34375 67.691406 53.03125 C 67.082031 52.707031 66.375 52.542969 65.574219 52.542969 C 64.628906 52.542969 63.878906 52.710938 63.328125 53.050781 C 62.789062 53.375 62.519531 53.824219 62.519531 54.402344 C 62.519531 54.875 62.734375 55.253906 63.167969 55.542969 C 63.609375 55.832031 64.304688 56.058594 65.25 56.226562 L 66.613281 56.460938 C 68.121094 56.714844 69.230469 57.148438 69.9375 57.761719 C 70.644531 58.375 70.996094 59.164062 70.996094 60.128906 C 70.996094 60.851562 70.773438 61.488281 70.332031 62.042969 C 69.898438 62.59375 69.296875 63.027344 68.519531 63.34375 C 67.738281 63.65625 66.847656 63.8125 65.84375 63.8125 Z M 65.84375 63.8125 "/>
</g>
</svg>
