<svg width="328" height="294" viewBox="0 0 328 294" fill="none" xmlns="http://www.w3.org/2000/svg">
<path d="M29.3492 129.33C29.3492 130.62 29.0832 131.748 28.5512 132.716C28.0112 133.675 27.2535 134.42 26.2782 134.952C25.303 135.484 24.1665 135.75 22.8688 135.75L17.8875 135.75C16.5817 135.75 15.4452 135.484 14.478 134.952C13.5027 134.42 12.7491 133.675 12.2171 132.716C11.6771 131.748 11.4071 130.62 11.4071 129.33C11.4071 128.041 11.6771 126.916 12.2171 125.957C12.7491 124.99 13.5027 124.24 14.478 123.708C15.4452 123.176 16.5817 122.91 17.8875 122.91L22.8688 122.91C24.1665 122.91 25.303 123.176 26.2782 123.708C27.2535 124.24 28.0112 124.99 28.5512 125.957C29.0832 126.916 29.3492 128.041 29.3492 129.33ZM26.0364 129.33C26.0364 128.427 25.7543 127.706 25.1901 127.166C24.6259 126.618 23.8803 126.344 22.9534 126.344L17.8029 126.344C16.8679 126.344 16.1223 126.618 15.5662 127.166C15.0019 127.706 14.7198 128.427 14.7198 129.33C14.7198 130.233 15.0019 130.958 15.5662 131.506C16.1223 132.047 16.8679 132.317 17.8029 132.317L22.9534 132.317C23.8803 132.317 24.6259 132.047 25.1901 131.506C25.7543 130.958 26.0364 130.233 26.0364 129.33ZM29.1558 119.646L11.5884 119.646L11.5884 115.596L25.0571 109.055L25.3715 109.345L11.5884 109.345L11.5884 106.177L29.1558 106.177L29.1558 110.252L15.8926 116.768L15.5782 116.478L29.1558 116.478L29.1558 119.646ZM29.1678 102.308L11.5884 102.308L11.5884 98.9954L29.1678 98.9954L29.1678 102.308ZM29.1678 101.111L25.976 101.111L25.976 90.5321L29.1678 90.5321L29.1678 101.111ZM22.0345 101.111L18.8426 101.111L18.8426 91.8621L22.0345 91.8621L22.0345 101.111ZM14.7803 101.111L11.5884 101.111L11.5884 90.5321L14.7803 90.5321L14.7803 101.111Z" fill="white"/>
<path d="M168.61 24.8735V21.8242H174.455C174.947 21.8242 175.34 21.6432 175.633 21.2813C175.933 20.9194 176.087 20.442 176.095 19.8491C176.095 19.2562 175.945 18.7787 175.644 18.4168C175.352 18.0549 174.955 17.874 174.455 17.874H168.61V14.8247H174.709C175.64 14.8247 176.453 15.0326 177.146 15.4484C177.847 15.8642 178.389 16.4494 178.774 17.204C179.159 17.9587 179.352 18.8403 179.352 19.8491C179.352 20.8578 179.156 21.7395 178.763 22.4941C178.378 23.2487 177.839 23.8339 177.146 24.2498C176.453 24.6656 175.64 24.8735 174.709 24.8735H168.61ZM167.351 31.6304V14.8247H170.516V31.6304H167.351ZM176.222 31.6304L172.145 24.3537L175.529 23.8224L180.056 31.6304H176.222ZM182.782 31.6304V14.8362H185.947V31.6304H182.782ZM183.926 31.6304V28.5811H194.032V31.6304H183.926ZM183.926 24.8157V21.7664H192.762V24.8157H183.926ZM183.926 17.8855V14.8362H194.032V17.8855H183.926ZM204.289 26.1556L207.489 14.8362H211.658V31.6304H208.782V18.5901L208.898 19.3293L205.687 29.7593H202.892L199.681 19.5603L199.796 18.5901V31.6304H196.92V14.8362H201.09L204.289 26.1556ZM215.354 31.6304V14.8362H218.519V31.6304H215.354ZM216.498 31.6304V28.5811H226.604V31.6304H216.498ZM216.498 24.8157V21.7664H225.334V24.8157H216.498ZM216.498 17.8855V14.8362H226.604V17.8855H216.498ZM236.861 26.1556L240.061 14.8362H244.23V31.6304H241.354V18.5901L241.47 19.3293L238.259 29.7593H235.464L232.253 19.5603L232.368 18.5901V31.6304H229.492V14.8362H233.662L236.861 26.1556ZM249.312 31.6304V28.5811H254.672C255.396 28.5811 255.954 28.4079 256.347 28.0614C256.747 27.7072 256.947 27.2143 256.947 26.5829V26.5483C256.947 25.9092 256.747 25.4163 256.347 25.0698C255.954 24.7156 255.396 24.5385 254.672 24.5385H249.312V21.4892H254.672C255.326 21.4892 255.831 21.3237 256.185 20.9926C256.547 20.6614 256.728 20.1956 256.728 19.595C256.728 19.0482 256.547 18.6286 256.185 18.336C255.831 18.0357 255.326 17.8855 254.672 17.8855H249.312V14.8362H254.776C256.408 14.8362 257.671 15.2328 258.564 16.0259C259.465 16.819 259.916 17.9394 259.916 19.3871C259.916 20.365 259.627 21.1735 259.049 21.8126C258.48 22.4441 257.671 22.8483 256.624 23.0254C257.74 23.1794 258.603 23.6068 259.211 24.3075C259.827 25.0005 260.135 25.9053 260.135 27.0218V27.0565C260.135 28.5118 259.685 29.6399 258.784 30.4407C257.883 31.2339 256.612 31.6304 254.972 31.6304H249.312ZM247.926 31.6304V14.8362H251.091V31.6304H247.926ZM263.196 31.6304V14.8362H266.361V31.6304H263.196ZM264.339 31.6304V28.5811H274.446V31.6304H264.339ZM264.339 24.8157V21.7664H273.175V24.8157H264.339ZM264.339 17.8855V14.8362H274.446V17.8855H264.339ZM278.593 24.8735V21.8242H284.437C284.93 21.8242 285.323 21.6432 285.615 21.2813C285.915 20.9194 286.069 20.442 286.077 19.8491C286.077 19.2562 285.927 18.7787 285.627 18.4168C285.334 18.0549 284.938 17.874 284.437 17.874H278.593V14.8247H284.691C285.623 14.8247 286.435 15.0326 287.128 15.4484C287.829 15.8642 288.372 16.4494 288.757 17.204C289.142 17.9587 289.334 18.8403 289.334 19.8491C289.334 20.8578 289.138 21.7395 288.745 22.4941C288.36 23.2487 287.821 23.8339 287.128 24.2498C286.435 24.6656 285.623 24.8735 284.691 24.8735H278.593ZM277.334 31.6304V14.8247H280.498V31.6304H277.334ZM286.204 31.6304L282.127 24.3537L285.511 23.8224L290.039 31.6304H286.204Z" fill="white"/>
<path d="M176.497 94.8813H253.296C257.546 94.8813 261.289 93.8188 264.527 91.694C267.765 89.5691 270.244 86.5336 271.964 82.5874C273.786 78.6413 274.747 74.088 274.848 68.9276C274.848 63.7673 273.937 59.214 272.116 55.2678C270.396 51.3217 267.917 48.2862 264.679 46.1613C261.441 44.0364 257.647 42.974 253.296 42.974H176.497V2.90527H256.635C268.777 2.90527 279.452 5.63723 288.66 11.1011C297.867 16.5651 305.001 24.3056 310.06 34.3228C315.119 44.2388 317.649 55.7738 317.649 68.9276C317.649 82.0815 315.119 93.6671 310.06 103.684C305.001 113.6 297.817 121.29 288.508 126.754C279.3 132.218 268.676 134.95 256.635 134.95H176.497V94.8813ZM159.954 2.90527H201.54V223.739H159.954V2.90527ZM222.941 128.12L267.411 121.138L326.907 223.739H276.517L222.941 128.12Z" fill="url(#paint0_linear_81_625)"/>
<path d="M80.7714 226.014C64.582 226.014 50.4163 222.675 38.2743 215.996C26.2334 209.217 16.8739 199.706 10.1958 187.463C3.51765 175.219 0.178589 160.953 0.178589 144.662V82.1304C0.178589 65.7387 3.51765 51.4718 10.1958 39.3297C16.8739 27.0865 26.2334 17.6258 38.2743 10.9477C50.4163 4.1684 64.582 0.778748 80.7714 0.778748C96.9608 0.778748 111.076 4.1684 123.117 10.9477C135.259 17.6258 144.669 27.0865 151.347 39.3297C158.025 51.4718 161.364 65.7387 161.364 82.1304V144.662C161.364 160.953 158.025 175.219 151.347 187.463C144.669 199.706 135.259 209.217 123.117 215.996C111.076 222.675 96.9608 226.014 80.7714 226.014ZM80.7714 184.427C92.104 184.427 101.16 180.886 107.939 173.803C114.82 166.72 118.26 157.361 118.26 145.724V81.068C118.26 69.3307 114.82 59.9712 107.939 52.9895C101.16 45.9067 92.104 42.3652 80.7714 42.3652C69.4388 42.3652 60.3323 45.9067 53.4518 52.9895C46.6725 59.9712 43.2828 69.3307 43.2828 81.068V145.724C43.2828 157.361 46.6725 166.72 53.4518 173.803C60.3323 180.886 69.4388 184.427 80.7714 184.427Z" fill="url(#paint1_linear_81_625)"/>
<path d="M116.677 185.968V161.566L165.976 96.7547C168.216 93.8567 169.928 90.8928 171.114 87.863C172.365 84.7674 172.991 81.9022 172.991 79.2677V79.0701C172.991 75.1841 171.74 72.1872 169.237 70.0795C166.734 67.9719 163.177 66.918 158.567 66.918C154.154 66.918 150.531 68.4 147.699 71.3639C144.933 74.2619 143.253 78.4114 142.66 83.8123V83.9111H114.898V83.8123C115.821 70.1783 120.168 59.6071 127.94 52.0985C135.778 44.5899 145.921 40.8356 158.369 40.8356C171.871 40.8356 182.311 44.0959 189.688 50.6165C197.13 57.1371 200.852 66.3582 200.852 78.2797V78.3785C200.852 84.8991 199.699 91.3868 197.394 97.8415C195.155 104.23 191.993 110.026 187.909 115.23L152.54 159.886H201.642V185.968H116.677Z" fill="white"/>
<path d="M8.47336 242.75V260.086H36.6764V267.884H8.47336V285.22H39.1649V293.018H0.178345V234.953H39.1649V242.75H8.47336Z" fill="white"/>
<path d="M106.364 234.953L80.9815 293.018H70.2809L44.9811 234.953H54.4374L75.8386 284.391L97.2397 234.953H106.364Z" fill="white"/>
<path d="M122.935 242.75V260.086H151.138V267.884H122.935V285.22H153.626V293.018H114.64V234.953H153.626V242.75H122.935Z" fill="white"/>
<path d="M217.508 234.953V293.018H208.383L174.208 246.068V293.018H166.079V234.953H176.281L209.379 280.824V234.953H217.508Z" fill="white"/>
<path d="M275.971 242.916H255.234V293.018H246.939V242.916H226.201V234.953H275.971V242.916Z" fill="white"/>
<path d="M304.184 293.847C297.437 293.847 291.742 292.188 287.096 288.87C282.506 285.497 279.714 280.824 278.718 274.852H287.013C288.396 278.667 290.47 281.46 293.235 283.23C296.055 284.999 299.788 285.884 304.433 285.884C308.912 285.884 312.534 285.082 315.299 283.478C318.064 281.819 319.447 279.69 319.447 277.091C319.447 274.824 318.424 272.999 316.378 271.617C314.332 270.179 310.958 268.99 306.258 268.05L299.954 266.888C293.373 265.727 288.451 263.736 285.188 260.916C281.926 258.04 280.294 254.501 280.294 250.298C280.294 247.091 281.262 244.271 283.198 241.837C285.133 239.404 287.843 237.524 291.327 236.197C294.811 234.814 298.82 234.123 303.355 234.123C309.272 234.123 314.415 235.588 318.783 238.519C323.152 241.395 326.028 245.46 327.41 250.713H318.7C317.594 247.893 315.604 245.764 312.728 244.326C309.908 242.833 306.645 242.086 302.94 242.086C298.571 242.086 295.115 242.86 292.571 244.409C290.083 245.902 288.838 247.976 288.838 250.63C288.838 252.787 289.834 254.529 291.824 255.856C293.871 257.183 297.078 258.234 301.447 259.008L307.751 260.086C314.719 261.248 319.834 263.239 323.097 266.059C326.359 268.879 327.991 272.501 327.991 276.925C327.991 280.243 326.968 283.174 324.922 285.718C322.931 288.262 320.138 290.253 316.544 291.69C312.949 293.128 308.829 293.847 304.184 293.847Z" fill="white"/>
<defs>
<linearGradient id="paint0_linear_81_625" x1="243.43" y1="2.90527" x2="243.43" y2="223.739" gradientUnits="userSpaceOnUse">
<stop stop-color="#BD5AB2"/>
<stop offset="1" stop-color="#A11E93"/>
</linearGradient>
<linearGradient id="paint1_linear_81_625" x1="80.7714" y1="0.778748" x2="80.7714" y2="226.014" gradientUnits="userSpaceOnUse">
<stop stop-color="#1EAFAB"/>
<stop offset="1" stop-color="#43817F"/>
</linearGradient>
</defs>
</svg>
